<?xml version="1.0" encoding="UTF-8"?>
<svg id="Layer_11" data-name="Layer 11" xmlns="http://www.w3.org/2000/svg" viewBox="0 0 1059 464">
  <defs>
    <style>
      .cls-1 {
        fill: #fff;
        stroke-width: 0px;
      }
    </style>
  </defs>
  <g>
    <rect class="cls-1" x="10.5" y="182.04" width="1027" height="145.94" rx="69" ry="69"/>
    <path class="cls-1" d="m968.5,182.54c18.22,0,35.4,7.15,48.38,20.12,12.98,12.98,20.12,30.16,20.12,48.38v7.94c0,18.22-7.15,35.4-20.12,48.38-12.98,12.98-30.16,20.12-48.38,20.12H79.5c-18.22,0-35.4-7.15-48.38-20.12-12.98-12.98-20.12-30.16-20.12-48.38v-7.94c0-18.22,7.15-35.4,20.12-48.38,12.98-12.98,30.16-20.12,48.38-20.12h889m0-1H79.5c-38.22,0-69.5,31.27-69.5,69.5v7.94c0,38.22,31.27,69.5,69.5,69.5h889c38.22,0,69.5-31.28,69.5-69.5v-7.94c0-38.22-31.28-69.5-69.5-69.5h0Z"/>
  </g>
  <g>
    <rect class="cls-1" x="113.71" y="79.5" width="691.58" height="145.94" rx="69" ry="69"/>
    <path class="cls-1" d="m736.28,80c18.22,0,35.4,7.15,48.38,20.12,12.98,12.98,20.12,30.16,20.12,48.38v7.94c0,18.22-7.15,35.4-20.12,48.38-12.98,12.98-30.16,20.12-48.38,20.12H182.71c-18.22,0-35.4-7.15-48.38-20.12-12.98-12.98-20.12-30.16-20.12-48.38v-7.94c0-18.22,7.15-35.4,20.12-48.38,12.98-12.98,30.16-20.12,48.38-20.12h553.58m0-1H182.71c-38.22,0-69.5,31.27-69.5,69.5v7.94c0,38.23,31.28,69.5,69.5,69.5h553.58c38.23,0,69.5-31.27,69.5-69.5v-7.94c0-38.23-31.27-69.5-69.5-69.5h0Z"/>
  </g>
  <g>
    <path class="cls-1" d="m360.6,265.56h473.46c38.08,0,69,30.92,69,69v7.94c0,38.08-30.92,69-69,69h-473.46c-38.08,0-69-30.92-69-69v-7.94c0-38.08,30.92-69,69-69Z"/>
    <path class="cls-1" d="m834.06,266.06c18.22,0,35.4,7.15,48.38,20.12,12.98,12.98,20.12,30.16,20.12,48.38v7.94c0,18.22-7.15,35.4-20.12,48.38-12.98,12.98-30.16,20.12-48.38,20.12h-473.45c-18.22,0-35.4-7.15-48.38-20.12-12.98-12.98-20.12-30.16-20.12-48.38v-7.94c0-18.22,7.15-35.4,20.12-48.38,12.98-12.98,30.16-20.12,48.38-20.12h473.45m0-1h-473.45c-38.23,0-69.5,31.27-69.5,69.5v7.94c0,38.23,31.27,69.5,69.5,69.5h473.45c38.22,0,69.5-31.27,69.5-69.5v-7.94c0-38.23-31.27-69.5-69.5-69.5h0Z"/>
  </g>
</svg>