<?xml version="1.0" encoding="UTF-8"?>
<svg id="Layer_9" data-name="Layer 9" xmlns="http://www.w3.org/2000/svg" viewBox="0 0 706.75 625.88">
  <defs>
    <style>
      .cls-1, .cls-2, .cls-3, .cls-4 {
        stroke-width: 10px;
      }

      .cls-1, .cls-2, .cls-3, .cls-4, .cls-5 {
        stroke-miterlimit: 10;
      }

      .cls-1, .cls-5 {
        fill: #ba8567;
        stroke: #ba8567;
      }

      .cls-2 {
        fill: #a0725c;
        stroke: #a0725c;
      }

      .cls-3 {
        fill: #845e4c;
        stroke: #845e4c;
      }

      .cls-4 {
        stroke: #fce1d4;
      }

      .cls-4, .cls-6 {
        fill: #fce1d4;
      }

      .cls-5 {
        stroke-width: 8px;
      }

      .cls-7 {
        fill: #493832;
      }

      .cls-7, .cls-6 {
        stroke-width: 0px;
      }
    </style>
  </defs>
  <path class="cls-2" d="m246.36,9.9h0c-5.22-.61-10.5.43-15.09,2.97l-11.54,6.38c-6.48,3.58-11.67,9.13-14.81,15.84h0c-.32.68-.19,1.5.32,2.05l16,17.3c3.74,4.04,10.43,2.69,12.31-2.49l14.35-39.58c.69-1.22-.34-2.34-1.53-2.48Z"/>
  <polygon class="cls-3" points="270.18 592.11 298.04 592.11 307.7 578.39 314.27 552.9 324.58 474.47 347.2 397.03 348.18 347.52 289.88 343.11 304.88 467.61 292.69 556.82 288.94 568.59 270.18 588.17 270.18 592.11"/>
  <path class="cls-3" d="m519.95,349.24l20.03,31.41c13,13.64,23.27,24.27,29.94,31.13,8.88,9.14,12.25,12.53,15.42,18.48,7.39,13.88,6.87,28.93,5.44,38.91l-9.07,84.63-31.3,38.64.45,7.08h33.74l17.07-45.72,13.61-96.31,10.89-41.83-31.76-45.72,11.04-32.42-85.51,11.71Z"/>
  <path class="cls-1" d="m527.68,179.61c-23.54,0-54.5,1.5-71.5,5.5-22,4-38.72,7.04-64.77,10.2-13.07,1.58-25.35,5.39-37.52,7.55-12.71,2.26-20.71,2.26-34.09.75-.8-.09-1.58-.34-2.37-.49-5.11-.99-10.37-1.5-15.75-1.5-48.05,0-87,41.19-87,92s38.95,92,87,92c9.61,0,18.85-1.65,27.5-4.69,25.19,6.9,54.56,9.12,85.37,5.39,29.89-3.62,57.12-12.37,79.55-24.49,10.55,3.11,21.84,4.79,33.58,4.79,58.54,0,106-41.86,106-93.5s-47.46-93.5-106-93.5Z"/>
  <polygon class="cls-1" points="246.18 616.11 275.88 616.11 286.18 602.11 293.18 576.11 304.18 496.11 328.29 417.11 329.33 366.61 267.18 362.11 283.17 489.11 270.18 580.11 266.18 592.11 246.18 612.09 246.18 616.11"/>
  <path class="cls-1" d="m338.35,218.53l-50.6-89.63-34.81-61.66c-3.48-6.19-7.91-11.81-13.11-16.65h0c-13.09-12.17-31.09-17.58-48.73-14.63l-11.56,1.93,38.2,169.28-2.39,73.37,145.45-35.32"/>
  <circle class="cls-1" cx="180.72" cy="88.36" r="50.5"/>
  <path class="cls-1" d="m494.57,361.82l22.07,32.29c14.33,14.02,25.65,24.95,33,32,9.78,9.39,13.51,12.88,17,19,8.15,14.27,7.57,29.74,6,40l-10,87-34.5,39.72.5,7.28h37.18l18.82-47,15-99,12-43-35-47,12.17-33.33-94.25,12.04Z"/>
  <path class="cls-5" d="m197.03,138.58l-49.37-77.55-8.38,13c-1.78,2.76-3.98,5.21-6.52,7.28l-32.78,26.6c-5.74,4.66-9.43,11.37-10.28,18.72h0c-.57,4.93,2.28,9.62,6.92,11.37l9.23,3.5c3.88,1.47,8.16,1.46,12.03-.01l11.89-4.53,25,2.07c6.49.54,39.54.59,45.47-2.09"/>
  <path class="cls-3" d="m202.08,73.43c-5.81-6.65-2.61-24.07,10.7-35.7,13.31-11.63,31.68-13.06,37.49-6.41,5.81,6.65-.26,21.48-13.57,33.1-13.31,11.63-28.81,15.66-34.62,9.01Z"/>
  <path class="cls-4" d="m623.48,243.28l6.86,11.8c3.87,6.64,8.77,12.62,14.54,17.71l10.54,9.3c9.51,8.39,21.76,13.03,34.45,13.03h0c3.5,0,5.64-3.86,3.77-6.83l-7.64-12.12c-1.98-3.14-.6-7.3,2.85-8.65l3.24-1.26c2.38-.93,2.65-4.18.46-5.49l-81.37-48.65,2.76,9.18c2.31,7.68,5.51,15.06,9.54,21.99Z"/>
  <path class="cls-4" d="m206.7,64.59c5.53-9.5,3.99-12.61,8.21-18.51,3.24-4.53,7.05-6.78,10.08-8.56,4.15-2.44,12.05-6.01,13.57-3.83.84,1.2-1.21,4.58-5.35,11.27-4.43,7.18-6.71,10.81-9.58,12.95-3.98,2.96-3.03,2.82-8.84,6.54-5.29,3.4-10.2,5.74-10.7,5.24-.38-.37,1.14-2.57,2.61-5.1Z"/>
  <path class="cls-6" d="m147.12,83.26c.75-4.22,3.86-6.86,5.4-7.96.35-.25.82-.22,1.14.05l5.97,5.06c2.14,1.82,3.17,4.72,2.37,7.41-.11.37-.26.75-.44,1.13-1.41,2.84-4.5,4.42-7.53,4.16-3.2-.27-5.51-2.53-6.49-4.78-.92-2.11-.6-4.05-.42-5.08Z"/>
  <path class="cls-7" d="m147.1,82.41c.75-4.19,3.84-6.81,5.38-7.91.35-.25.81-.22,1.14.05l5.94,5.03c2.13,1.81,3.16,4.69,2.36,7.37-.11.37-.26.75-.44,1.12-1.4,2.82-4.48,4.39-7.5,4.13-3.19-.27-5.49-2.51-6.47-4.75-.92-2.1-.6-4.02-.42-5.05Z"/>
  <ellipse class="cls-7" cx="90.24" cy="125.46" rx="8.5" ry="6" transform="translate(-44.8 200.61) rotate(-83.37)"/>
  <path class="cls-4" d="m485.72,356.59c-5.12-14.75-3.59-24.42-.83-30.74,2.32-5.33,5.38-7.99,4.15-10.8-2.28-5.23-17.06-5.73-28.25-.83-8.97,3.93-15.51,8.89-22.43,18.28-4.51,6.12-6.56,12.93-8.31,20.77-1.47,6.6-1.07,12.89-.83,16.62.16,2.43.42,4.65.72,6.63.42,2.75,3.08,4.58,5.81,4.03l9.85-1.97c12.19-2.44,23.68-7.59,33.61-15.07l10.12-7.62"/>
</svg>