<?xml version="1.0" encoding="UTF-8"?>
<svg id="Layer_8" data-name="Layer 8" xmlns="http://www.w3.org/2000/svg" viewBox="0 0 706.75 625.88">
  <defs>
    <style>
      .cls-1, .cls-2, .cls-3, .cls-4 {
        stroke-width: 10px;
      }

      .cls-1, .cls-2, .cls-3, .cls-4, .cls-5 {
        stroke-miterlimit: 10;
      }

      .cls-1, .cls-5 {
        fill: #ba8567;
        stroke: #ba8567;
      }

      .cls-2 {
        fill: #a0725c;
        stroke: #a0725c;
      }

      .cls-3 {
        fill: #845e4c;
        stroke: #845e4c;
      }

      .cls-4 {
        stroke: #fce1d4;
      }

      .cls-4, .cls-6 {
        fill: #fce1d4;
      }

      .cls-5 {
        stroke-width: 8px;
      }

      .cls-7 {
        fill: #493832;
      }

      .cls-7, .cls-6 {
        stroke-width: 0px;
      }
    </style>
  </defs>
  <path class="cls-2" d="m40.52,412.8h0c-1.66,4.99-1.71,10.36-.16,15.38l3.9,12.6c2.19,7.08,6.56,13.28,12.5,17.72h0c.61.45,1.42.49,2.07.1l20.19-12.14c4.72-2.84,4.76-9.66.07-12.55l-35.83-22.1c-1.05-.92-2.36-.14-2.74,1Z"/>
  <polygon class="cls-3" points="269.51 593.83 297.38 593.83 307.04 580.1 313.6 554.61 323.92 476.19 346.54 398.74 347.51 349.24 289.21 344.83 304.22 469.33 292.03 558.53 288.28 570.3 269.51 589.88 269.51 593.83"/>
  <polygon class="cls-1" points="245.51 617.83 275.22 617.83 285.51 603.83 292.51 577.83 303.51 497.83 327.62 418.83 328.66 368.33 266.51 363.83 282.51 490.83 269.51 581.83 265.51 593.83 245.51 613.8 245.51 617.83"/>
  <path class="cls-1" d="m236.15,241.51l-115.74,167.05c-4.05,5.84-7.16,12.28-9.24,19.07h0c-5.22,17.1-2.21,35.65,8.15,50.22l6.79,9.56,135.52-108.38,58.25,8.26-86.59-153.56"/>
  <circle class="cls-1" cx="102.17" cy="484.64" r="50.5"/>
  <path class="cls-5" d="m152.84,499.52l-91.88-3.01,6.01,14.25c1.27,3.02,2.06,6.23,2.33,9.49l3.45,42.07c.6,7.37,4.07,14.2,9.64,19.05h0c3.75,3.26,9.22,3.55,13.29.71l8.1-5.65c3.4-2.37,5.81-5.91,6.78-9.94l2.98-12.37,15.82-19.47c4.11-5.06,22.81-32.3,23.94-38.72"/>
  <path class="cls-3" d="m93.71,469.08c-7.7,4.34-24.1-2.34-32.78-17.74-8.68-15.4-6.34-33.68,1.35-38.01,7.7-4.34,20.97,4.62,29.65,20.02,8.68,15.4,9.47,31.39,1.77,35.73Z"/>
  <path class="cls-4" d="m86,462.76c-8.18-7.35-11.53-6.47-16.45-11.8-3.78-4.09-5.2-8.28-6.33-11.61-1.55-4.56-3.44-13.02-.99-14.06,1.35-.57,4.23,2.12,9.95,7.53,6.13,5.8,9.22,8.77,10.73,12.02,2.08,4.5,2.14,3.54,4.61,9.98,2.25,5.88,3.55,11.15,2.96,11.55-.44.3-2.28-1.64-4.47-3.6Z"/>
  <path class="cls-6" d="m79,509.49c-3.06-3-3.48-7.06-3.52-8.95,0-.43.28-.8.69-.91l7.55-2.07c2.71-.74,5.69.05,7.46,2.23.25.3.47.64.68,1.01,1.55,2.76,1.11,6.21-.82,8.56-2.03,2.49-5.2,3.12-7.61,2.66-2.26-.43-3.68-1.79-4.43-2.53Z"/>
  <path class="cls-7" d="m79.2,508.5c-2.88-2.83-3.28-6.65-3.32-8.44,0-.4.26-.76.65-.86l7.12-1.95c2.55-.7,5.36.05,7.03,2.1.23.28.45.6.64.95,1.46,2.61,1.04,5.85-.77,8.07-1.92,2.34-4.9,2.94-7.18,2.51-2.13-.41-3.47-1.69-4.18-2.38Z"/>
  <ellipse class="cls-7" cx="81.73" cy="580.26" rx="6" ry="8.5" transform="translate(-409.84 261.3) rotate(-49)"/>
  <path class="cls-3" d="m518.83,349.6l20.03,31.41c13,13.64,23.27,24.27,29.94,31.13,8.88,9.14,12.25,12.53,15.42,18.48,7.39,13.88,6.87,28.93,5.44,38.91l-9.07,84.63-31.3,38.64.45,7.08h33.74l17.07-45.72,13.61-96.31,10.89-41.83-31.76-45.72,11.04-32.42-85.51,11.71Z"/>
  <path class="cls-1" d="m493.45,362.18l22.07,32.29c14.33,14.02,25.65,24.95,33,32,9.78,9.39,13.51,12.88,17,19,8.15,14.27,7.57,29.74,6,40l-10,87-34.5,39.72.5,7.28h37.18l18.82-47,15-99,12-43-35-47,12.17-33.33-94.25,12.04Z"/>
  <path class="cls-1" d="m521.75,177.63c-23.51,1.14-54.36,4.13-71.15,8.95-21.78,5.06-38.34,8.9-64.2,13.31-12.98,2.21-25.06,6.61-37.11,9.35-12.59,2.87-20.58,3.25-34.01,2.4-.8-.05-1.59-.26-2.39-.38-5.15-.74-10.43-1-15.8-.74-47.99,2.32-84.91,45.35-82.45,96.1,2.45,50.75,43.35,90.01,91.34,87.69,9.6-.46,18.75-2.56,27.24-6.02,25.49,5.67,54.94,6.48,85.53,1.26,29.68-5.06,56.46-15.11,78.28-28.3,10.69,2.59,22.05,3.73,33.77,3.16,58.47-2.83,103.85-46.93,101.36-98.51-2.49-51.58-51.92-91.1-110.39-88.27Z"/>
  <path class="cls-4" d="m620.51,236.59l7.43,11.45c4.18,6.45,9.37,12.19,15.38,16.99l10.97,8.78c9.91,7.92,22.37,11.96,35.04,11.35h0c3.5-.17,5.44-4.13,3.43-7l-8.21-11.73c-2.13-3.04-.96-7.27,2.43-8.78l3.18-1.42c2.33-1.04,2.45-4.31.2-5.51l-83.63-44.66,3.2,9.04c2.67,7.56,6.23,14.77,10.59,21.5Z"/>
  <path class="cls-4" d="m488.39,356.43c-5.83-14.49-4.76-24.21-2.32-30.66,2.06-5.44,4.99-8.24,3.63-10.99-2.53-5.12-17.31-4.9-28.26.53-8.77,4.36-15.07,9.63-21.52,19.34-4.21,6.34-5.92,13.23-7.3,21.15-1.15,6.66-.45,12.93-.03,16.64.27,2.42.64,4.62,1.04,6.58.55,2.73,3.29,4.42,5.99,3.75l9.74-2.44c12.06-3.02,23.28-8.72,32.84-16.68l9.74-8.1"/>
</svg>