<?xml version="1.0" encoding="UTF-8"?>
<svg id="Layer_9" data-name="Layer 9" xmlns="http://www.w3.org/2000/svg" viewBox="0 0 706.75 625.88">
  <defs>
    <style>
      .cls-1, .cls-2, .cls-3, .cls-4 {
        stroke-width: 10px;
      }

      .cls-1, .cls-2, .cls-3, .cls-4, .cls-5 {
        stroke-miterlimit: 10;
      }

      .cls-1, .cls-5 {
        fill: #ba8567;
        stroke: #ba8567;
      }

      .cls-2 {
        fill: #a0725c;
        stroke: #a0725c;
      }

      .cls-3 {
        fill: #845e4c;
        stroke: #845e4c;
      }

      .cls-4 {
        stroke: #fce1d4;
      }

      .cls-4, .cls-6 {
        fill: #fce1d4;
      }

      .cls-5 {
        stroke-width: 8px;
      }

      .cls-7 {
        fill: #493832;
      }

      .cls-7, .cls-6 {
        stroke-width: 0px;
      }
    </style>
  </defs>
  <path class="cls-2" d="m19.35,360.94h0c0,5.25,1.64,10.37,4.7,14.65l7.67,10.73c4.31,6.03,10.42,10.53,17.44,12.88h0c.72.24,1.51.02,2-.55l15.33-17.89c3.58-4.18,1.47-10.67-3.89-11.94l-40.97-9.68c-1.29-.54-2.29.61-2.29,1.81Z"/>
  <polygon class="cls-3" points="269.87 592.08 297.73 592.08 307.39 578.36 313.96 552.87 324.28 474.44 346.89 397 347.87 347.49 289.57 343.08 304.57 467.58 292.38 556.79 288.63 568.55 269.87 588.13 269.87 592.08"/>
  <polygon class="cls-1" points="245.87 616.08 275.57 616.08 285.87 602.08 292.87 576.08 303.87 496.08 327.98 417.08 329.02 366.58 266.87 362.08 282.86 489.08 269.87 580.08 265.87 592.08 245.87 612.05 245.87 616.08"/>
  <path class="cls-1" d="m240,228.37l-164.45,119.4c-5.75,4.18-10.82,9.22-15.03,14.95h0c-10.58,14.41-13.87,32.92-8.91,50.09l3.25,11.26,163.73-57.5,52.24,27.05-30.97-173.55"/>
  <circle class="cls-1" cx="104.87" cy="417.08" r="50.5"/>
  <path class="cls-5" d="m152.87,395.08l-71.33,58,13.88,6.82c2.94,1.45,5.64,3.35,7.98,5.64l30.21,29.49c5.29,5.16,12.39,8.05,19.78,8.05h0c4.96,0,9.29-3.37,10.5-8.19l2.41-9.57c1.01-4.02.51-8.27-1.4-11.95l-5.87-11.29-.83-25.07c-.22-6.51-3.98-39.34-7.33-44.93"/>
  <path class="cls-3" d="m87.57,397.58c-5.94,6.54-23.61,5.37-36.7-6.5-13.09-11.88-16.64-29.96-10.7-36.5,5.94-6.54,21.36-2.22,34.45,9.65,13.09,11.88,18.88,26.81,12.95,33.35Z"/>
  <path class="cls-4" d="m78.26,394.02c-10.08-4.39-12.98-2.51-19.34-6.02-4.88-2.69-7.54-6.22-9.67-9.02-2.91-3.84-7.37-11.28-5.37-13.04,1.1-.97,4.69.68,11.82,4.01,7.64,3.57,11.51,5.41,13.97,8.02,3.4,3.62,3.15,2.69,7.52,8.02,3.99,4.87,6.88,9.47,6.45,10.03-.32.42-2.68-.83-5.37-2.01Z"/>
  <path class="cls-6" d="m103.69,451.05c-4.28-.26-7.26-3.04-8.53-4.45-.29-.32-.32-.79-.08-1.14l4.34-6.51c1.56-2.34,4.33-3.69,7.09-3.21.38.07.78.17,1.17.31,2.98,1.07,4.91,3.96,5,7,.1,3.21-1.87,5.76-4,7-1.99,1.16-3.95,1.06-5,1Z"/>
  <path class="cls-7" d="m103.19,450.17c-4.03-.25-6.84-2.87-8.04-4.19-.27-.3-.3-.74-.07-1.08l4.09-6.14c1.47-2.2,4.08-3.48,6.69-3.03.36.06.73.16,1.11.29,2.81,1.01,4.63,3.73,4.71,6.6.09,3.03-1.77,5.43-3.77,6.6-1.88,1.09-3.73,1-4.71.94Z"/>
  <ellipse class="cls-7" cx="152.17" cy="502.67" rx="8.5" ry="6"/>
  <path class="cls-3" d="m519.18,347.85l20.03,31.41c13,13.64,23.27,24.27,29.94,31.13,8.88,9.14,12.25,12.53,15.42,18.48,7.39,13.88,6.87,28.93,5.44,38.91l-9.07,84.63-31.3,38.64.45,7.08h33.74l17.07-45.72,13.61-96.31,10.89-41.83-31.76-45.72,11.04-32.42-85.51,11.71Z"/>
  <path class="cls-1" d="m493.8,360.44l22.07,32.29c14.33,14.02,25.65,24.95,33,32,9.78,9.39,13.51,12.88,17,19,8.15,14.27,7.57,29.74,6,40l-10,87-34.5,39.72.5,7.28h37.18l18.82-47,15-99,12-43-35-47,12.17-33.33-94.25,12.04Z"/>
  <path class="cls-1" d="m527.23,179.3c-23.54,0-54.5,1.5-71.5,5.5-22,4-38.72,7.04-64.77,10.2-13.07,1.58-25.35,5.39-37.52,7.55s-20.71,2.26-34.09.75c-.8-.09-1.58-.34-2.37-.49-5.11-.99-10.37-1.5-15.75-1.5-48.05,0-87,41.19-87,92s38.95,92,87,92c9.61,0,18.85-1.65,27.5-4.69,25.19,6.9,54.56,9.12,85.37,5.39,29.89-3.62,57.12-12.37,79.55-24.49,10.55,3.11,21.84,4.79,33.58,4.79,58.54,0,106-41.86,106-93.5s-47.46-93.5-106-93.5Z"/>
  <path class="cls-4" d="m623.03,242.97l6.86,11.8c3.87,6.64,8.77,12.62,14.54,17.71l10.54,9.3c9.51,8.39,21.76,13.03,34.45,13.03h0c3.5,0,5.64-3.86,3.77-6.83l-7.64-12.12c-1.98-3.14-.6-7.3,2.85-8.65l3.24-1.26c2.38-.93,2.65-4.18.46-5.49l-81.37-48.65,2.76,9.18c2.31,7.68,5.51,15.06,9.54,21.99Z"/>
  <path class="cls-4" d="m485.27,356.28c-5.12-14.75-3.59-24.42-.83-30.74,2.32-5.33,5.38-7.99,4.15-10.8-2.28-5.23-17.06-5.73-28.25-.83-8.97,3.93-15.51,8.89-22.43,18.28-4.51,6.12-6.56,12.93-8.31,20.77-1.47,6.6-1.07,12.89-.83,16.62.16,2.43.42,4.65.72,6.63.42,2.75,3.08,4.58,5.81,4.03l9.85-1.97c12.19-2.44,23.68-7.59,33.61-15.07l10.12-7.62"/>
</svg>