<?xml version="1.0" encoding="UTF-8"?>
<svg id="images" xmlns="http://www.w3.org/2000/svg" viewBox="0 0 332.5 616.22">
  <defs>
    <style>
      .cls-1 {
        fill: #4c4037;
      }

      .cls-1, .cls-2, .cls-3, .cls-4, .cls-5, .cls-6 {
        stroke-width: 0px;
      }

      .cls-2 {
        fill: #798893;
      }

      .cls-3 {
        fill: #f2c3d1;
      }

      .cls-4 {
        fill: #f0afc2;
      }

      .cls-5 {
        fill: #e5c2aa;
      }

      .cls-6 {
        fill: #efd6c5;
      }
    </style>
  </defs>
  <rect class="cls-1" x="77" y="520.44" width="97" height="45" rx="22.5" ry="22.5"/>
  <rect class="cls-5" x="60.79" y="464.93" width="100" height="45" rx="15.36" ry="15.36" transform="translate(592.16 352.75) rotate(87.17)"/>
  <rect class="cls-1" x="62" y="537.44" width="97" height="45" rx="22.5" ry="22.5"/>
  <path class="cls-6" d="m54.66,481.1h68.64c8.65,0,15.68,7.03,15.68,15.68v22.85c0,3.57-2.9,6.47-6.47,6.47H54.66c-8.65,0-15.68-7.03-15.68-15.68v-13.64c0-8.65,7.03-15.68,15.68-15.68Z" transform="translate(587.58 389.9) rotate(87.17)"/>
  <rect class="cls-2" x="47" y="245.44" width="105" height="285" rx="31.18" ry="31.18"/>
  <path class="cls-5" d="m210,115.44c2.78-16.37,14.26-29.39,29-33,22.58-5.54,39.13,14.35,42,18,12.35,15.7,15.28,40.36,6,49-3.81,3.55-9.45,4.17-14,11-2.73,4.1-3.64,8.28-4,11v.03c-.55,2.17-2.78,3.46-4.94,2.85l-3.06-.87-7.02,2c-.74,1.39-4.98,4-8.98,8-5.12,5.12-15.03-.18-18-5-1.6-2.6-1.06-4.83-3-6-2.47-1.49-6.3.35-9,2l-28-38,18.26-11.32c2.99-2.32,4.74-5.9,4.74-9.68h0Z"/>
  <path class="cls-4" d="m82.19,304.86l-30.44-27.42c-18.87-16.99-20.4-46.33-3.41-65.2l59.79-66.38c24.44-27.14,66.64-29.34,93.78-4.9h0c18.09,26.48,15.19,37.39,6.31,65.36-6.23,19.61-15.92,37.94-28.63,54.12l-32.2,41.01c-16.99,18.87-46.33,20.4-65.2,3.41Z"/>
  <path class="cls-1" d="m247.25,137.44h-5c-.42-.83-1.89-1.53-3-2-7-3-6.81,2.33-12,7l-5,5h0c-6.78,3.01-9.89,10.89-7.02,17.72,2.21,5.27,5.05,11.62,6.14,19.43,1.29,9.27-1.89,18.62-8.51,25.24l-9.61,9.61,3-60c2.99-2.32-24-37.21-24-41l8.04.61c9.71.73,18.99-4.6,22.88-13.52.03-.07.06-.13.09-.2,4.92-11.51,14.48-20.16,26.07-23,22.58-5.54,39.13,14.35,42,18,12.35,15.7,15.21,40.47,5.93,49.11l-7.57-7.15c-5.74-5.29-14.15-6.62-21.15-3.19-.39.19-.28.34-1.28.34"/>
  <rect class="cls-4" x="117.83" y="111.38" width="97" height="57.33" rx="28.67" ry="28.67" transform="translate(176.06 -77.17) rotate(52.47)"/>
  <rect class="cls-3" x="36.35" y="222.19" width="172.4" height="47.46" rx="23.73" ry="23.73" transform="translate(-146.69 300.75) rotate(-75.02)"/>
  <rect class="cls-5" x="80.63" y="311.27" width="39.69" height="30.64" rx="14.41" ry="14.41" transform="translate(64.67 -13.22) rotate(11.09)"/>
  <rect class="cls-5" x="232.04" y="128.12" width="15.62" height="17.01" rx="6.02" ry="6.02" transform="translate(221.36 -138.79) rotate(56.49)"/>
</svg>