<?xml version="1.0" encoding="UTF-8"?>
<svg id="images" xmlns="http://www.w3.org/2000/svg" viewBox="0 0 332.5 616.22">
  <defs>
    <style>
      .cls-1 {
        fill: #4c4037;
      }

      .cls-1, .cls-2, .cls-3, .cls-4, .cls-5, .cls-6 {
        stroke-width: 0px;
      }

      .cls-2 {
        fill: #798893;
      }

      .cls-3 {
        fill: #f2c3d1;
      }

      .cls-4 {
        fill: #f0afc2;
      }

      .cls-5 {
        fill: #e5c2aa;
      }

      .cls-6 {
        fill: #efd6c5;
      }
    </style>
  </defs>
  <rect class="cls-1" x="82.44" y="519.26" width="97" height="45" rx="22.5" ry="22.5"/>
  <rect class="cls-5" x="66.22" y="463.76" width="100" height="45" rx="15.36" ry="15.36" transform="translate(596.16 346.2) rotate(87.17)"/>
  <rect class="cls-1" x="67.44" y="536.26" width="97" height="45" rx="22.5" ry="22.5"/>
  <path class="cls-6" d="m60.1,479.92h68.64c8.65,0,15.68,7.03,15.68,15.68v22.85c0,3.57-2.9,6.47-6.47,6.47H60.1c-8.65,0-15.68-7.03-15.68-15.68v-13.64c0-8.65,7.03-15.68,15.68-15.68Z" transform="translate(591.58 383.35) rotate(87.17)"/>
  <rect class="cls-2" x="52.44" y="244.26" width="105" height="285" rx="31.18" ry="31.18"/>
  <path class="cls-5" d="m96.52,81.45c-8.49-14.26-8.19-31.62.69-43.93,13.61-18.86,39.1-14.44,43.65-13.52,19.58,3.94,37.8,20.83,36.33,33.42-.6,5.17-4.49,9.3-3.53,17.45.58,4.89,2.6,8.67,4.09,10.97v.02c1.01,2.01.14,4.44-1.9,5.37l-2.9,1.32-4.05,6.08c.34,1.54-1.2,6.27-1.65,11.91-.58,7.22-11.55,9.61-16.95,7.86-2.91-.94-3.94-2.99-6.17-2.62-2.85.47-4.57,4.35-5.56,7.36l-45.95-10.78,6.57-20.46c.77-3.71-.22-7.56-2.67-10.44h0Z"/>
  <path class="cls-4" d="m122,308.53l-40.95-1.14c-25.38-.71-45.57-22.05-44.86-47.43l2.49-89.3c1.02-36.51,31.72-65.54,68.23-64.53h0c30.94,8.43,35.81,18.63,47.17,45.68,7.97,18.97,12.47,39.21,13.29,59.77l2.07,52.1c-.71,25.38-22.05,45.57-47.43,44.86Z"/>
  <path class="cls-1" d="m139.15,74.05h0l-3.81,3.24c-.86-.36-2.43.07-3.58.42-7.27,2.25-3.68,6.19-4.6,13.11l-.57,7.05h0c-3.21,6.69-.47,14.7,6.15,18.05,5.1,2.58,11.38,5.57,17.27,10.81,7,6.23,10.63,15.4,9.88,24.74l-1.09,13.55-36.61-47.63c.77-3.71-42.4-12.78-44.85-15.66l6.51-4.75c7.86-5.73,11.48-15.81,8.66-25.13-.02-.07-.04-.14-.06-.21-3.72-11.95-2.04-24.74,4.94-34.41,13.61-18.86,39.1-14.44,43.65-13.52,19.58,3.94,37.82,20.96,36.35,33.55l-10.4-.54c-7.79-.31-15.06,4.13-18.17,11.28-.17.4,0,.44-.75,1.09"/>
  <rect class="cls-4" x="30.73" y="99.83" width="97" height="57.33" rx="28.67" ry="28.67" transform="translate(28.59 -13.72) rotate(12.06)"/>
  <rect class="cls-3" x="5.79" y="221.02" width="172.4" height="47.46" rx="23.73" ry="23.73" transform="translate(-152.76 336.73) rotate(-90)"/>
  <rect class="cls-5" x="72.07" y="311.1" width="39.69" height="30.64" rx="14.41" ry="14.41"/>
  <rect class="cls-5" x="125.17" y="69.72" width="15.62" height="17.01" rx="6.02" ry="6.02" transform="translate(26.88 -33.78) rotate(16.08)"/>
</svg>