<?xml version="1.0" encoding="UTF-8"?>
<svg xmlns="http://www.w3.org/2000/svg" viewBox="0 0 1306 1366">
  <defs>
    <style>
      .cls-1 {
        fill: #845e4c;
        stroke: #845e4c;
      }

      .cls-1, .cls-2 {
        stroke-miterlimit: 10;
        stroke-width: 10px;
      }

      .cls-3 {
        font-family: MyriadPro-Regular, 'Myriad Pro';
        font-size: 12.76px;
      }

      .cls-2 {
        fill: #f7b2c6;
        opacity: .7;
        stroke: #f7b2c6;
      }

      .cls-4 {
        fill: #fce1d4;
        stroke-width: 0px;
      }
    </style>
  </defs>
  <g id="images">
    <path class="cls-2" d="m786.07,864.35l-32.72-2.7c-14.22-1.17-28.1,4.73-37.12,15.77l-20.77,25.43c-22.72,27.82-67.48,17.5-75.74-17.46l-7.55-31.96c-3.28-13.88-13.18-25.26-26.47-30.43l-30.6-11.9c-33.48-13.02-37.5-58.77-6.8-77.42l28.06-17.05c12.19-7.41,19.95-20.34,20.76-34.58l1.86-32.78c2.04-35.86,44.31-53.82,71.53-30.39l24.89,21.42c10.81,9.3,25.51,12.69,39.3,9.06l31.75-8.36c34.73-9.15,64.88,25.51,51.01,58.64l-12.68,30.29c-5.51,13.16-4.19,28.18,3.53,40.18l17.76,27.61c19.43,30.21-4.21,69.59-40.01,66.64Z"/>
    <path class="cls-2" d="m863.13,769.59l-18.47,2.77c-8.02,1.2-14.94,6.27-18.5,13.57l-8.19,16.78c-8.96,18.36-35.09,18.47-44.21.19l-8.34-16.71c-3.62-7.26-10.59-12.27-18.62-13.4l-18.49-2.61c-20.23-2.85-28.41-27.66-13.84-41.99l13.32-13.09c5.79-5.69,8.4-13.86,6.99-21.85l-3.24-18.39c-3.54-20.12,17.53-35.57,35.65-26.14l16.57,8.62c7.2,3.74,15.78,3.71,22.94-.1l16.49-8.76c18.04-9.59,39.25,5.68,35.88,25.83l-3.08,18.42c-1.34,8,1.35,16.15,7.18,21.79l13.43,12.98c14.69,14.2,6.73,39.08-13.48,42.11Z"/>
  </g>
  <g id="Layer_6" data-name="Layer 6">
    <path class="cls-4" d="m280.71,1056.88c-4.54-.37-7.65-3.4-8.96-4.92-.3-.34-.32-.84-.06-1.22l4.76-6.82c1.71-2.45,4.68-3.83,7.61-3.25.41.08.82.2,1.24.36,3.15,1.2,5.13,4.32,5.16,7.55.03,3.42-2.12,6.08-4.41,7.35-2.14,1.18-4.22,1.04-5.34.95Z"/>
    <path class="cls-1" d="m338.56,1336.28c-.84,5.02,47.48,10.62,51.99,10.72l46.86,1c.3,0,.6,0,.9-.04l62.42-7.41c3.38-.4,6.08-3.37,6.53-7.17l28.38-241.27c.03-.3.08-.59.15-.88l43.25-199.5c2.74-12.65,10.01-23.48,20.06-29.88l133.86-85.27c.23-.15.46-.28.7-.39l247.61-120.58c.17-.08.34-.17.5-.27l83.98-49.75c1.26-.75,2.3-1.89,3-3.29l44.23-88.73c1.01-2.02,1.22-4.42.59-6.62l-5.35-18.58c-1.9-6.62-9.77-7.73-13.11-1.85l-51.14,89.93c-.83,1.45-2.03,2.58-3.44,3.22l-186.82,85.11-292.86,143.12c-8.25,4.03-14.88,11.39-18.61,20.63l-36.1,89.56c-3.19,7.91-13.6,5.7-13.97-2.96l-7.07-169.39c-.03-.78-.16-1.56-.39-2.3l-34.75-114.01c-.42-1.37-.51-2.83-.26-4.25l20.92-122.54c.37-2.17,1.49-4.08,3.11-5.32l47.49-36.19c1.37-1.05,2.4-2.59,2.9-4.37l40.35-142.96,23.35-83.12c.52-1.86.45-3.87-.21-5.67l-2.49-6.79c-1.11-3.02-3.69-5-6.59-5.06l-25.03-.53c-5.15-.11-8.81,5.66-7.06,11.12l2.86,8.89c.57,1.78.58,3.72.04,5.52l-40.82,133.66c-.41,1.35-1.12,2.55-2.07,3.5l-58.96,59.28c-.3.31-.59.64-.84,1l-7.11,9.98c-2.05,2.88-5.54,3.89-8.55,2.46l-49.08-23.24c-1.08-.51-2.03-1.3-2.77-2.31l-88.31-119.71c-.98-1.33-2.31-2.28-3.8-2.7l-15.7-4.5c-5.75-1.65-10.79,4.74-8.67,11l3.43,10.14c.35,1.02.87,1.96,1.54,2.75l35.29,41.63,55.44,71.5c.3.39.63.74.99,1.05l36.74,32.5c.2.17.4.34.62.49l15.57,11.05c2.94,2.09,4.17,6.24,2.92,9.92l-15.56,46.02c-.3.88-.46,1.82-.48,2.76l-.61,28.6-.8,87.7h0c-.15,7.26-7.92,10.83-12.47,5.74l-46.09-51.49c-.69-.77-1.52-1.38-2.43-1.79l-24.32-10.92c-7.39-3.32-13.54,7.23-7.91,13.56l18.23,20.48,47.56,54.87c.12.14.25.29.36.45l30.32,40.58c.35.47.65.97.9,1.51l16.24,35.34c.44.96.71,2.01.79,3.1l9.78,130.12c.03.42.03.84,0,1.26l-4.91,82.17-85.26,358.65"/>
    <path class="cls-2" d="m966.37,767.89l-14.76-46.58c-6.41-20.24-22.37-36.02-42.67-42.21l-46.74-14.25c-51.13-15.59-62.19-83.04-18.72-114.14l39.74-28.43c17.26-12.35,27.34-32.41,26.96-53.63l-.89-48.86c-.98-53.45,59.76-84.81,102.77-53.08l39.32,29.01c17.08,12.6,39.27,15.99,59.33,9.07l46.19-15.95c50.53-17.44,99.13,30.62,82.24,81.34l-15.44,46.36c-6.71,20.14-3.07,42.29,9.71,59.23l29.44,39c32.2,42.67,1.51,103.74-51.95,103.35l-48.86-.36c-21.23-.16-41.17,10.14-53.33,27.54l-28,40.05c-30.63,43.81-98.19,33.49-114.34-17.47Z"/>
    <text class="cls-3" transform="translate(390.56 573.97) rotate(1.22)"><tspan x="0" y="0">F7B2C6</tspan></text>
    <path class="cls-2" d="m556.98,562.18l-23.05-43.08c-10.01-18.72-28.6-31.31-49.69-33.67l-48.56-5.43c-53.12-5.94-76.37-70.22-39.34-108.77l33.85-35.24c14.71-15.31,20.94-36.87,16.66-57.66l-9.84-47.86c-10.76-52.36,43.19-94.33,91.29-71.03l43.98,21.31c19.1,9.26,41.54,8.52,59.99-1.97l42.48-24.15c46.47-26.42,103.06,11.92,95.76,64.88l-6.67,48.41c-2.9,21.03,4.73,42.14,20.41,56.45l36.09,32.94c39.48,36.03,20.51,101.7-32.11,111.12l-48.1,8.61c-20.89,3.74-38.61,17.52-47.37,36.86l-20.17,44.51c-22.07,48.69-90.39,50.93-115.61,3.8Z"/>
    <path class="cls-2" d="m451.02,732.46l-43.61-22.04c-18.95-9.57-41.39-9.21-60.02.97l-42.88,23.43c-46.91,25.64-102.85-13.64-94.66-66.47l7.48-48.29c3.25-20.98-4.03-42.21-19.47-56.78l-35.54-33.54c-38.88-36.69-18.81-102.03,33.96-110.57l48.24-7.81c20.95-3.39,38.9-16.88,47.98-36.06l20.91-44.16c22.88-48.31,91.22-49.42,115.65-1.87l22.33,43.46c9.7,18.88,28.07,31.78,49.12,34.49l48.46,6.24c53.02,6.83,75.19,71.49,37.52,109.41l-34.44,34.67c-14.96,15.06-21.55,36.52-17.62,57.38l9.04,48.02c9.89,52.53-44.76,93.6-92.47,69.49Z"/>
    <path class="cls-2" d="m522.77,243.38l-23.08,43.07c-10.02,18.71-10.2,41.16-.47,60.02l22.4,43.43c24.5,47.51-16.1,102.49-68.72,93.04l-48.1-8.64c-20.89-3.75-42.29,3.02-57.23,18.1l-34.38,34.72c-37.61,37.99-102.45,16.36-109.72-36.6l-6.65-48.41c-2.89-21.03-15.94-39.29-34.9-48.83l-43.65-21.97c-47.75-24.03-47.22-92.38.9-115.66l43.99-21.28c19.11-9.25,32.44-27.3,35.66-48.28l7.4-48.3c8.1-52.84,73.27-73.45,110.28-34.88l33.83,35.26c14.7,15.32,35.99,22.42,56.94,18.99l48.22-7.88c52.75-8.62,92.5,46.99,67.26,94.1Z"/>
    <path class="cls-2" d="m961.96,659.32l-43.61-22.04c-18.95-9.57-41.39-9.21-60.02.97l-42.88,23.43c-46.91,25.64-102.85-13.64-94.66-66.47l7.48-48.29c3.25-20.98-4.03-42.21-19.47-56.78l-35.54-33.54c-38.88-36.69-18.81-102.03,33.96-110.57l48.24-7.81c20.95-3.39,38.9-16.88,47.98-36.06l20.91-44.16c22.88-48.31,91.22-49.42,115.65-1.87l22.33,43.46c9.7,18.88,28.07,31.78,49.12,34.49l48.46,6.24c53.02,6.83,75.19,71.49,37.52,109.41l-34.44,34.67c-14.96,15.06-21.55,36.52-17.62,57.38l9.04,48.02c9.89,52.53-44.76,93.6-92.47,69.49Z"/>
    <path class="cls-2" d="m1231.51,478.47l-48.86-.69c-21.22-.3-41.24,9.87-53.51,27.18l-28.26,39.86c-30.92,43.61-98.42,32.83-114.22-18.24l-14.45-46.68c-6.28-20.28-22.13-36.17-42.39-42.5l-46.64-14.56c-51.03-15.93-61.63-83.46-17.95-114.27l39.93-28.16c17.35-12.23,27.56-32.22,27.32-53.45l-.56-48.86c-.62-53.45,60.32-84.41,103.13-52.38l39.13,29.27c17,12.72,39.16,16.26,59.27,9.46l46.3-15.64c50.64-17.1,98.92,31.29,81.69,81.89l-15.75,46.26c-6.84,20.09-3.36,42.27,9.32,59.3l29.18,39.2c31.92,42.88.81,103.75-52.64,103Z"/>
    <path class="cls-2" d="m641.27,334.24l-32.61-10.4c-14.17-4.52-29.65-1.77-41.4,7.34l-27.05,20.97c-29.59,22.94-72.65,1.99-72.86-35.45l-.19-34.23c-.08-14.87-7.48-28.75-19.77-37.11l-28.31-19.25c-30.97-21.06-24.34-68.48,11.2-80.25l32.5-10.76c14.12-4.67,25.03-15.99,29.18-30.27l9.56-32.87c10.46-35.96,57.61-44.31,79.78-14.14l20.27,27.58c8.81,11.98,22.95,18.86,37.81,18.4l34.21-1.07c37.43-1.17,59.95,41.09,38.11,71.51l-19.97,27.81c-8.67,12.08-10.85,27.65-5.81,41.64l11.59,32.21c12.68,35.24-20.56,69.71-56.23,58.34Z"/>
    <path class="cls-2" d="m354.09,639.9l-46.17-16.02c-20.05-6.96-42.25-3.6-59.35,8.98l-39.37,28.95c-43.06,31.67-103.75.21-102.69-53.23l.97-48.86c.42-21.22-9.63-41.29-26.88-53.67l-39.7-28.49c-43.43-31.17-32.26-98.6,18.89-114.11l46.76-14.18c20.31-6.16,36.3-21.92,42.74-42.15l14.83-46.56c16.22-50.93,83.81-61.15,114.37-17.3l27.93,40.09c12.13,17.42,32.06,27.75,53.29,27.62l48.86-.28c53.45-.31,84.06,60.81,51.79,103.43l-29.5,38.96c-12.81,16.92-16.48,39.07-9.8,59.22l15.37,46.38c16.81,50.74-31.86,98.74-82.36,81.22Z"/>
    <path class="cls-2" d="m758.24,714.12l-19.19-24.74c-8.34-10.75-21.43-16.71-35.01-15.94l-31.26,1.78c-34.2,1.95-55.78-36.17-36.52-64.5l17.6-25.9c7.65-11.25,9.27-25.54,4.34-38.22l-11.35-29.18c-12.42-31.92,17.16-64.23,50.05-54.67l30.07,8.74c13.06,3.8,27.16.92,37.69-7.68l24.25-19.81c26.52-21.68,66.39-3.53,67.46,30.71l.98,31.3c.43,13.6,7.51,26.11,18.95,33.47l26.34,16.94c28.81,18.53,23.87,62.05-8.36,73.65l-29.46,10.6c-12.8,4.61-22.51,15.21-25.97,28.37l-7.97,30.28c-8.72,33.13-51.64,41.88-72.63,14.81Z"/>
  </g>
</svg>