<?xml version="1.0" encoding="UTF-8"?>
<svg id="images" xmlns="http://www.w3.org/2000/svg" viewBox="0 0 530.5 478">
  <defs>
    <style>
      .cls-1 {
        fill: #444240;
      }

      .cls-1, .cls-2 {
        stroke-width: 0px;
      }

      .cls-2 {
        fill: #d66565;
      }
    </style>
  </defs>
  <rect class="cls-2" x="87.77" y="39.74" width="56.08" height="437.52" rx="28.04" ry="28.04" transform="translate(13.69 -5.71) rotate(3)"/>
  <rect class="cls-2" x="245.22" y="-186.41" width="39.44" height="491.75" rx="19.72" ry="19.72" transform="translate(324.4 -205.48) rotate(90)"/>
  <rect class="cls-2" x="245.53" y="-84.74" width="39.44" height="491.75" rx="19.72" ry="19.72" transform="translate(426.38 -104.11) rotate(90)"/>
  <rect class="cls-2" x="245.22" y="59.19" width="39.44" height="115.5" rx="19.72" ry="19.72" transform="translate(529.87 233.89) rotate(180)"/>
  <rect class="cls-2" x="385.61" y="39.5" width="56.08" height="437.52" rx="28.04" ry="28.04" transform="translate(-12.95 22) rotate(-3)"/>
  <path class="cls-1" d="m1.5,23.72h0C1.5,12.87,10.37,4,21.22,4l217.01,14.8c17.99,1.23,36.05,1.23,54.04,0l216.39-14.79c10.85,0,19.72,8.87,19.72,19.72h0c0,10.85-8.87,19.72-19.72,19.72l-214.84,14.14c-19.03,1.25-38.11,1.25-57.14,0L21.22,43.44c-10.85,0-19.72-8.87-19.72-19.72Z"/>
</svg>