<?xml version="1.0" encoding="UTF-8"?>
<svg xmlns="http://www.w3.org/2000/svg" viewBox="0 0 706.75 747.88">
  <defs>
    <style>
      .cls-1 {
        stroke: #fff;
        stroke-width: 10px;
      }

      .cls-1, .cls-2 {
        stroke-miterlimit: 10;
      }

      .cls-1, .cls-3 {
        fill: #fff;
      }

      .cls-2 {
        stroke: #b7b7b7;
      }

      .cls-2, .cls-4 {
        fill: #b7b7b7;
      }

      .cls-4, .cls-3 {
        stroke-width: 0px;
      }
    </style>
  </defs>
  <g id="Layer_11" data-name="Layer 11">
    <path class="cls-3" d="m418.17,98.06c8.49-14.26,8.19-31.62-.69-43.93-13.61-18.86-39.1-14.44-43.65-13.52-19.58,3.94-37.8,20.83-36.33,33.42.6,5.17,4.49,9.3,3.53,17.45-.58,4.89-2.6,8.67-4.09,10.97v.02c-1.01,2.01-.14,4.44,1.9,5.37l2.9,1.32,4.05,6.08c-.34,1.54,1.2,6.27,1.65,11.91.58,7.22,11.55,9.61,16.95,7.86,2.91-.94,3.94-2.99,6.17-2.62,2.85.47,4.57,4.35,5.56,7.36l45.95-10.78-6.57-20.46c-.77-3.71.22-7.56,2.67-10.44h0Z"/>
    <path class="cls-3" d="m356.25,384.88l204,4c16.67-.46-81-102-82-146l-2.75-74.15c-.79-28.29-24.17-50.8-51.97-50.02l-15.85.44c-31.94,8.84-36.09,19.61-48.27,49.19-7.21,17.51-11.29,36.2-12.02,55.19l-2.16,55.94c.72,25.83-14.37,106.12,11.02,105.41Z"/>
    <path class="cls-4" d="m375.54,90.66h0l3.81,3.24c.86-.36,2.43.07,3.58.42,7.27,2.25,3.68,6.19,4.6,13.11l.57,7.05h0c3.21,6.69.47,14.7-6.15,18.05-5.1,2.58-11.38,5.57-17.27,10.81-7,6.23-10.63,15.4-9.88,24.74l1.09,13.55,36.61-47.63c-.77-3.71,42.4-12.78,44.85-15.66l-6.51-4.75c-7.86-5.73-11.48-15.81-8.66-25.13.02-.07.04-.14.06-.21,3.72-11.95,2.04-24.74-4.94-34.41-13.61-18.86-39.1-14.44-43.65-13.52-19.58,3.94-37.82,20.96-36.35,33.55l10.4-.54c7.79-.31,15.06,4.13,18.17,11.28.17.4,0,.44.75,1.09"/>
    <path class="cls-3" d="m402.67,183.86l-112.54,54.26c-11.76,5.67-16.74,19.92-11.07,31.68h0c5.67,11.76,23.44,49.75,35.19,44.08l92-99c11.76-5.67,33.77-8.19,28.1-19.95h0c-5.67-11.76-19.92-16.74-31.68-11.07Z"/>
    <rect class="cls-3" x="373.9" y="86.34" width="15.62" height="17.01" rx="6.02" ry="6.02" transform="translate(774.75 80.22) rotate(163.92)"/>
    <rect class="cls-3" x="183.25" y="63.88" width="14" height="120" rx="7" ry="7" transform="translate(29.66 -36.59) rotate(11.91)"/>
    <rect class="cls-3" x="126.25" y="103.87" width="68" height="14" rx="7" ry="7" transform="translate(83.42 -68.21) rotate(32.1)"/>
    <rect class="cls-3" x="139.81" y="80.17" width="40.61" height="14" rx="7" ry="7" transform="translate(41.78 225.85) rotate(-78.09)"/>
    <rect class="cls-3" x="193.49" y="55.72" width="40.61" height="14" rx="7" ry="7" transform="translate(6.99 145.62) rotate(-38.19)"/>
    <rect class="cls-3" x="168.49" y="51.72" width="40.61" height="14" rx="7" ry="7" transform="translate(266.59 240.49) rotate(-130.45)"/>
    <rect class="cls-4" x="351.73" y="24.25" width="68" height="23.29" rx="9.5" ry="9.5" transform="translate(138.36 -262.24) rotate(45)"/>
  </g>
  <g id="Layer_9" data-name="Layer 9">
    <polygon class="cls-2" points="270.18 714.11 298.04 714.11 307.7 700.39 314.27 674.9 324.58 596.47 347.2 519.03 348.18 469.52 289.88 465.11 304.88 589.61 292.69 678.82 288.94 690.59 270.18 710.17 270.18 714.11"/>
    <path class="cls-2" d="m519.95,471.24l20.03,31.41c13,13.64,23.27,24.27,29.94,31.13,8.88,9.14,12.25,12.53,15.42,18.48,7.39,13.88,6.87,28.93,5.44,38.91l-9.07,84.63-31.3,38.64.45,7.08h33.74l17.07-45.72,13.61-96.31,10.89-41.83-31.76-45.72,11.04-32.42-85.51,11.71Z"/>
    <path class="cls-1" d="m527.68,301.61c-23.54,0-54.5,1.5-71.5,5.5-22,4-38.72,7.04-64.77,10.2-13.07,1.58-25.35,5.39-37.52,7.55-12.71,2.26-20.71,2.26-34.09.75-.8-.09-1.58-.34-2.37-.49-5.11-.99-10.37-1.5-15.75-1.5-48.05,0-87,41.19-87,92s38.95,92,87,92c9.61,0,18.85-1.65,27.5-4.69,25.19,6.9,54.56,9.12,85.37,5.39,29.89-3.62,57.12-12.37,79.55-24.49,10.55,3.11,21.84,4.79,33.58,4.79,58.54,0,106-41.86,106-93.5s-47.46-93.5-106-93.5Z"/>
    <polygon class="cls-1" points="246.18 738.11 275.88 738.11 286.18 724.11 293.18 698.11 304.18 618.11 328.29 539.11 329.33 488.61 267.18 484.11 283.17 611.11 270.18 702.11 266.18 714.11 246.18 734.09 246.18 738.11"/>
    <path class="cls-1" d="m338.35,340.53l-50.6-89.63-34.81-61.66c-3.48-6.19-7.91-11.81-13.11-16.65h0c-13.09-12.17-31.09-17.58-48.73-14.63l-11.56,1.93,38.2,169.28-2.39,73.37,145.45-35.32"/>
    <path class="cls-1" d="m155.25,261.88c-27.7-3.22-27.92-29.64-24.69-57.35s28.29-47.55,55.99-44.33,47.55,28.29,44.33,55.99c-3.22,27.7-47.93,48.9-75.63,45.68Z"/>
    <path class="cls-1" d="m494.57,483.82l22.07,32.29c14.33,14.02,25.65,24.95,33,32,9.78,9.39,13.51,12.88,17,19,8.15,14.27,7.57,29.74,6,40l-10,87-34.5,39.72.5,7.28h37.18l18.82-47,15-99,12-43-35-47,12.17-33.33-94.25,12.04Z"/>
    <path class="cls-1" d="m196.25,253.88l-48.6-70.84-8.38,13c-1.78,2.76-3.98,5.21-6.52,7.28l-32.78,26.6c-5.74,4.66-9.43,11.37-10.28,18.72h0c-.57,4.93,2.28,9.62,6.92,11.37l9.23,3.5c3.88,1.47,8.16,1.46,12.03-.01l11.89-4.53,25,2.07c6.49.54,41.5-13.22,45.49-17.16"/>
    <path class="cls-1" d="m623.48,365.28l6.86,11.8c3.87,6.64,8.77,12.62,14.54,17.71l10.54,9.3c9.51,8.39,21.76,13.03,34.45,13.03h0c3.5,0,5.64-3.86,3.77-6.83l-7.64-12.12c-1.98-3.14-.6-7.3,2.85-8.65l3.24-1.26c2.38-.93,2.65-4.18.46-5.49l-81.37-48.65,2.76,9.18c2.31,7.68,5.51,15.06,9.54,21.99Z"/>
    <path class="cls-4" d="m147.1,204.41c.75-4.19,3.84-6.81,5.38-7.91.35-.25.81-.22,1.14.05l5.94,5.03c2.13,1.81,3.16,4.69,2.36,7.37-.11.37-.26.75-.44,1.12-1.4,2.82-4.48,4.39-7.5,4.13-3.19-.27-5.49-2.51-6.47-4.75-.92-2.1-.6-4.02-.42-5.05Z"/>
    <ellipse class="cls-4" cx="90.24" cy="247.46" rx="8.5" ry="6" transform="translate(-165.99 308.52) rotate(-83.37)"/>
    <ellipse class="cls-1" cx="215.57" cy="151.15" rx="33" ry="12.35" transform="translate(23.19 330.89) rotate(-78.09)"/>
  </g>
</svg>