<?xml version="1.0" encoding="UTF-8"?>
<svg xmlns="http://www.w3.org/2000/svg" xmlns:xlink="http://www.w3.org/1999/xlink" viewBox="0 0 1819 845">
  <defs>
    <style>
      .cls-1 {
        stroke: #231f20;
        stroke-width: .65px;
      }

      .cls-1, .cls-2 {
        fill: none;
      }

      .cls-2, .cls-3, .cls-4, .cls-5, .cls-6 {
        stroke-width: 0px;
      }

      .cls-7, .cls-8, .cls-9, .cls-10, .cls-11, .cls-12, .cls-13 {
        stroke-miterlimit: 10;
      }

      .cls-7, .cls-10 {
        stroke: #c1b5a7;
      }

      .cls-7, .cls-3 {
        fill: url(#Scotch_Rule_1);
      }

      .cls-8 {
        fill: #fff;
      }

      .cls-8, .cls-12 {
        stroke: #4c4037;
      }

      .cls-9 {
        fill: #c1b9b2;
      }

      .cls-9, .cls-11 {
        stroke: #444240;
      }

      .cls-10, .cls-5 {
        fill: #c1b5a7;
      }

      .cls-11 {
        fill: #444240;
      }

      .cls-12 {
        fill: #4c4037;
      }

      .cls-13 {
        fill: #7ba89d;
        stroke: #7ba89d;
      }

      .cls-4 {
        fill: #75706c;
      }

      .cls-6 {
        fill: #fff383;
      }
    </style>
    <pattern id="Scotch_Rule_1" data-name="Scotch Rule 1" x="0" y="0" width="73.12" height="72" patternTransform="translate(-5561 234)" patternUnits="userSpaceOnUse" viewBox="0 0 73.12 72">
      <g>
        <rect class="cls-2" width="73.12" height="72"/>
        <line class="cls-1" x1="12.74" y1="72" x2="12.74"/>
        <line class="cls-1" x1="31.02" y1="72" x2="31.02"/>
        <line class="cls-1" x1="49.3" y1="72" x2="49.3"/>
        <line class="cls-1" x1="67.58" y1="72" x2="67.58"/>
        <line class="cls-1" x1="5.54" y1="72" x2="5.54"/>
        <line class="cls-1" x1="23.82" y1="72" x2="23.82"/>
        <line class="cls-1" x1="42.1" y1="72" x2="42.1"/>
        <line class="cls-1" x1="60.38" y1="72" x2="60.38"/>
      </g>
    </pattern>
  </defs>
  <g id="Layer_8" data-name="Layer 8">
    <path class="cls-11" d="m412.5,392.5l-98.36-84.36c-7.42-6.76-14.47-13.91-21.11-21.44l-75.85-86.01,1377.06,2.03-97.66,103.05c-7.72,8.15-15.91,15.83-24.53,23.01l-61.56,64.72-998-1Z"/>
    <path class="cls-11" d="m276.03,671.3l-128.26-90.86c-9.54-6.76-18.59-13.91-27.11-21.44l-97.42-86.01,1768.76,2.03-125.44,103.05c-9.91,8.15-20.43,15.83-31.51,23.01l-91.27,59.22-1267.75,11Z"/>
    <rect class="cls-11" x="276.5" y="644.5" width="1269" height="174"/>
  </g>
  <g id="Layer_6" data-name="Layer 6">
    <path class="cls-4" d="m1035.42,69.5h-251.27c-12.92,0-25.74,2.15-37.96,6.34-31.61,10.83-58.98,19.3-80.68,25.66-116,34-90,29-174,49-24.17,5.75-58.02,11.52-97,7-14.08-1.63-26.1-4.79-35.46-7.91-3.78-1.26-7.51,2.06-6.73,5.97l3.19,15.94c-5.71,1.19-14.37,2.79-25,4-20.46,2.32-39.45,4.48-61-1-6.95-1.77-16.91-5.03-28.27-11.52-3.48-1.99-7.72.9-7.09,4.86l4.04,25.57h-17.28c-3.74,0-5.91,4.25-3.71,7.27h0c5.94,8.17,15.01,13.51,25.04,14.7,102.43,12.17,208.93,22.09,319.27,29.11,106.15,6.76,428.89,24.08,856-8,59.31-4.45,108.01-8.91,140-12l4.32-1.08c12.77-3.19,24.16-10.46,32.43-20.7l3.65-4.51c1.86-2.31.24-5.75-2.72-5.77l-23.63-.23,9.36-28.72c.9-2.75-2.02-5.19-4.56-3.81-1.62.88-3.39,1.79-5.3,2.72-22.22,10.79-41.64,12.7-57.54,14.12-15.72,1.4-38.56,1.88-66-3l10.7-22.11c1.37-2.84-1.55-5.82-4.42-4.52-1.91.86-4.01,1.76-6.28,2.63-14.36,5.56-38.36,11.74-76,6-36.57-5.57-150.14-32.17-302-77l-.24-.13c-10.33-5.81-21.99-8.87-33.85-8.87Z"/>
    <rect class="cls-9" x="480.5" y="286.5" width="863" height="106"/>
    <rect class="cls-9" x="288.5" y="554.5" width="110" height="252"/>
    <rect class="cls-9" x="433.5" y="554.5" width="162" height="252"/>
    <rect class="cls-9" x="629.5" y="554.5" width="168" height="100"/>
    <rect class="cls-9" x="1020.5" y="554.5" width="168" height="100"/>
    <rect class="cls-9" x="1409.5" y="554.5" width="110" height="100"/>
    <rect class="cls-9" x="1218.5" y="554.5" width="162" height="252"/>
  </g>
  <g id="Layer_2" data-name="Layer 2">
    <path class="cls-5" d="m247.58,192.7c-2.61.1-2.77,3.9-.18,4.2,198.38,23.53,422.43,39.24,667.9,38.6,239.8-.63,458.98-16.75,653.59-40.35,2.16-.26,1.97-3.45-.21-3.46-30.18-.14-61.51-1.29-93.88-3.68-158.75-11.73-294.79-49.84-403.27-92.16-9.9-3.86-20.42-5.84-31.04-5.84h-277.59c-6.71,0-13.37,1.21-19.64,3.6-12.96,4.94-26.11,9.74-39.46,14.4-158.83,55.46-313.43,79.46-456.22,84.7Z"/>
  </g>
  <g id="Layer_3" data-name="Layer 3">
    <path class="cls-7" d="m247.36,193.2c-2.61.1-2.77,3.9-.18,4.2,198.38,23.53,422.43,39.24,667.9,38.6,239.8-.63,458.98-16.75,653.59-40.35,2.16-.26,1.97-3.45-.21-3.46-30.18-.14-61.51-1.29-93.88-3.68-158.75-11.73-294.79-49.84-403.27-92.16-9.9-3.86-20.42-5.84-31.04-5.84h-277.59c-6.71,0-13.37,1.21-19.64,3.6-12.96,4.94-26.11,9.74-39.46,14.4-158.83,55.46-313.43,79.46-456.22,84.7Z"/>
    <path class="cls-4" d="m1030.09,496.34h380.17c130.65-6.23,256.76-15.03,378.05-25.83,11.88-1.06,22.62-5.8,29.65-13.05h0c2.61-2.69.04-6.45-4.39-6.45h-20.46l4.78-22.69c.74-3.51-4.28-6.08-8.4-4.32-13.46,5.76-25.26,8.66-33.48,10.22-25.52,4.86-48.01,2.95-72.23.89-12.59-1.07-22.84-2.5-29.6-3.55l3.78-14.15c.93-3.47-3.49-6.41-7.96-5.3-11.09,2.77-25.32,5.57-41.99,7.02-46.15,4.01-86.58.83-114.86-6.21-96.49-24.03-16.41-4.51-83.14-20.13h-379.91"/>
    <path class="cls-4" d="m790.87,392.79h-373.37c-5.63,0-11.25.65-16.73,1.92-51.53,12.01,17.17-4.73-74.85,18.21-28.25,7.04-68.65,10.22-114.77,6.21-16.66-1.45-30.88-4.25-41.96-7.02-4.47-1.12-8.88,1.83-7.96,5.3l3.77,14.15c-6.76,1.05-17,2.48-29.58,3.55-24.2,2.06-46.68,3.98-72.17-.89-8.22-1.57-20.01-4.46-33.45-10.22-4.12-1.76-9.13.8-8.39,4.32l4.78,22.69H5.75c-4.43,0-6.99,3.77-4.38,6.45,7.03,7.25,17.76,11.99,29.63,13.05,121.2,10.8,247.2,19.6,377.75,25.83h388.5"/>
    <path class="cls-10" d="m1030.09,487.15h394.68l310.41-24.12c5.06-.39,5.01-7.84-.06-8.15l-89.65-5.56-259.96-46.82-355.41,3.37"/>
    <path class="cls-10" d="m680.37,488l-590.5-19.2c-5.44-.18-5.87-8.19-.48-8.96l336.87-48.3,354.12-3.4.63,79.71"/>
    <path class="cls-7" d="m1030.09,487.48h393.02c2.49,0,4.98-.1,7.47-.29l304.82-23.68c5.23-.41,5.17-8.09-.07-8.41l-87.55-5.43c-.16-.01-.33-.03-.49-.06l-259.32-46.71c-.26-.05-.52-.07-.79-.07l-357.1,3.39"/>
    <path class="cls-3" d="m780,487.5l-93.6-.02-587.26-19.09c-5.1-.17-5.5-7.66-.45-8.39l335.9-48.14c.18-.03.36-.04.55-.04l342.89-3.33,1.98,79Z"/>
    <path class="cls-13" d="m781,393c0-38.11,57.76-69,129-69s129,30.89,129,69"/>
    <path class="cls-4" d="m790.87,394.98c0-35.33,53.55-63.98,119.61-63.98s119.61,28.64,119.61,63.98"/>
    <line class="cls-10" x1="680.8" y1="487.15" x2="780" y2="487.5"/>
    <rect class="cls-12" x="790.5" y="393.5" width="240" height="264"/>
  </g>
  <g id="Layer_4" data-name="Layer 4">
    <rect class="cls-8" x="821.5" y="649.5" width="176" height="8"/>
    <rect class="cls-8" x="821.5" y="611.5" width="176" height="26"/>
  </g>
  <g id="Layer_5" data-name="Layer 5">
    <path class="cls-6" d="m776.5,74.5v7.28h-44.21v-26.8c.87-4.69,2.6-8.09,4.21-10.47,6.95-10.24,21.07-14.99,36.95-13.63,3.12.27,6.13,1.35,8.74,3.09h0c1.67,1.11,2.84,2.85,3.18,4.82.55,3.21-.06,5.28-.86,6.65-4.2,7.17-18.14,2.92-23,11.07-.25.41-2.16,3.72-1,7,1.23,3.5,5.56,5.84,11,6h0c2.76,0,5,2.24,5,5Z"/>
    <path class="cls-6" d="m1029.43,73.04v7.35h43.57v-26.8c-.86-4.69-2.56-8.09-4.15-10.47-7.1-10.61-21.79-15.33-38.13-13.46-2.07.24-4.06,1-5.79,2.17h0c-3.01,2.04-4.81,5.57-4.37,9.18.16,1.28.54,2.27.98,3.04,4.14,7.17,17.87,2.92,22.66,11.07.24.41,2.12,3.72.99,7-1.22,3.5-5.48,5.84-10.84,6h0c-2.72,0-4.93,2.21-4.93,4.93Z"/>
  </g>
  <g id="Layer_7" data-name="Layer 7">
    <path class="cls-13" d="m909.5,328.5h30.4v-4.72c2.9.12,5.5-1.15,6.6-3.28,1.54-2.98-.43-6.45-2-8-3.37-3.33-10.31-3.13-17,1v-9c.25-.21,3.42-2.86,3-7-.03-.3-.52-4.48-4-6-2.94-1.28-6.77-.13-9,3l-2,2c.47-.75,1.22-2.23,1-4-.36-2.9-3.17-5.43-7-6v42Z"/>
    <path class="cls-13" d="m909.24,328.2h-30.95v-4.72c-2.95.12-5.6-1.15-6.72-3.28-1.57-2.98.44-6.45,2.04-8,3.43-3.33,10.5-3.13,17.31,1v-9c-.26-.21-3.48-2.86-3.05-7,.03-.3.53-4.48,4.07-6,2.99-1.28,6.89-.13,9.16,3l2.04,2c-.48-.75-1.24-2.23-1.02-4,.37-2.9,3.23-5.43,7.13-6v42Z"/>
  </g>
</svg>